<svg xmlns="http://www.w3.org/2000/svg" version="1.1" xmlns:xlink="http://www.w3.org/1999/xlink" width="512" height="512" x="0" y="0" viewBox="0 0 512.001 512.001" style="enable-background:new 0 0 512 512" xml:space="preserve" class=""><g><path d="M183.926 60.349c-61.188 1.349-127.072 44.155-145.492 103.847-5.668 18.368-16.001 62.797 8.066 73.361 9.232 4.052 21.106-1.783 30.525-2.607 16.93-1.48 35.082.773 52.06 1.655 34.959 1.815 69.709-.054 104.669.007 65.894.115 132.685 6.406 198.403.785 10.404-.89 28.023-2.519 35.638-10.877 7.4-8.123 5.165-24.989 3.238-34.717-9.629-48.61-30.941-101.611-78.854-123.916-22.082-10.28-44.643-16.212-69.02-17.953-24.944-1.782-50.263 1.396-75.275 2.293-21.495.772-43.874.025-63.958 8.122zM40.268 379.25c-3.098 21.034-4.469 43.779 9.937 61.408 5.304 6.491 13.083 10.935 21.187 12.964 16.116 4.034 33.553 2.107 49.879 3.854 22.147 2.37 44.386 2.433 66.599 1.11 19.627-1.169 38.284 6.294 57.906 6.243 58.782-.151 114.986-11.302 173.325-18.337 17.939-2.163 33.221-8.972 38.154-27.309 4.004-14.883-.027-25.458-1.456-39.78-12.374-1.559-26.344 1.763-38.885 1.907-22.21.255-44.425.144-66.574-.957-37.513-1.865-74.969-4.154-112.603-4.161-42.598-.007-84.821 6.44-127.176 6.093-13.961-.114-27.902 1.794-41.954 1.091-8.81-.441-16.752-3.259-28.339-4.126z" style="" fill="#ff7a49" data-original="#ff7a49" class=""></path><path d="M456.015 219.841c-18.129-5.34-38.71-3.194-57.475-4.417-19.122-1.247-38.216-3.316-57.265-5.368-38.471-4.144-77.103-6.535-115.563-10.71-26.815-2.911-57.148-5.218-80.748-19.719-8.266-5.079-16.234-12.437-17.512-22.577-1.48-11.735 5.488-23.786 11.842-33.063 4.531-6.615 10.197-12.938 16.313-18.392 15.567-13.884 34.469-25.094 53.664-33.609 7.105-3.152 14.478-5.661 21.821-8.187 10.125-3.482 20.622-6.155 30.536-10.222 3.736-1.533 6.517-3.627.852-4.924-10.862-2.487-22.1-.607-32.818 1.678-4.244.904-7.837 2.56-11.899 3.774-5.505 1.646-11.378 2.168-16.934 3.823-5.169 1.539-9.908 2.83-15.079 4.016a403.171 403.171 0 0 0-12.87 3.173c-8.741 2.31-17.405 4.923-25.944 7.895-33.439 11.641-66.79 29.124-89.336 57.172-13.405 16.676-21.946 36.659-24.65 57.891-2.208 17.341 1.677 35.689 17.638 45.335 19.288 11.657 47.557 8.142 69.072 8.343 25.787.242 51.565 1.605 77.359.714 26.327-.91 52.592-2.868 78.939-3.548 27.818-.718 55.624-2.121 83.454-2.081 7.336.011 14.685-.072 22.03-.291 12.286.318 24.578.632 36.866.847 12.653.221 25.429 1.213 37.708-2.357 7.506-2.181 7.477-12.993-.001-15.196zM436.697 402.515c-14.446 3.793-28.944 3.91-43.765 4.875-15.63 1.018-31.237 2.326-46.875 3.252-33.611 1.99-67.261 3.32-100.907 4.546-32.405 1.181-64.8 2.243-97.229 1.59-16.116-.324-32.262-.45-48.326-1.911-16.496-1.5-32.52-4-49.137-3.685-3.678.07-6.06 2.207-7.045 4.883-4.042.511-6.851 3.342-8.121 6.838 3.314 4.963 5.705 10.71 7.356 16.615 11.017 8.022 27.117 11.463 39.689 14.199 16.733 3.641 34.006 4.784 51.095 5.125 34.324.685 68.79-1.486 103.1-2.403 39.729-1.063 79.468-2.221 119.141-4.673 18.391-1.137 36.776-4.6 54.437-9.862 6.266-1.867 12.855-3.722 19.024-6.327 5.302-.901 10.51-2.21 15.52-4.202 17.464-6.943 11.151-33.876-7.957-28.86z" style="" fill="#e8643f" data-original="#e8643f" class=""></path><path d="M42.646 231.855c-4.666 3.272-10.644 3.49-15.695 6.153-5.29 2.79-9.179 6.801-13.512 10.828-5.928 5.508-11.858 12.701-6.941 21.126 5.148 8.821 17.482 7.855 26.455 8.081 13.736.345 25.584-4.308 38.54-7.98 7.949-2.253 12.675-2.824 20.02.66 8.955 4.247 14.561 9.526 24.941 10.037 19.103.941 33.635-18.703 52.731-11.714 11.639 4.26 19.472 10.884 32.622 9.164 12.391-1.621 22.695-11.194 35.079-11.745 10.945-.487 19.618 5.567 29.586 8.88 14.796 4.916 24.367 2.422 38.446-3.466 13.905-5.816 19.508-3.97 32.484 1.562 16.396 6.989 25.572 4.91 41.098-2.866 13.592-6.807 23.771 5.163 38.026 2.439 10.267-1.962 18.309-9.876 29.226-7.77 5.396 1.041 9.565 3.685 15.176 4.34 7.014.819 14.248.758 21.281.324 7.818-.481 20.296-2.345 22.904-11.281 2.838-9.724-7.965-23.03-15.853-28.035-13.135-8.335-20.83.785-32.799 4.752-4.716 1.563-10.65 2.07-15.604 3.062-11.552 2.315-23.275 3.965-35.077 3.989-19 .038-37.988-.801-56.956-1.845-37.4-2.059-74.83-4.984-112.314-3.772-34.678 1.121-69.338.618-104.045 2.399-20.77 1.065-42.172.696-62.945-.664-9.317-.611-18.336-2.918-26.874-6.658z" style="" fill="#5cbf4b" data-original="#5cbf4b" class=""></path><path d="M498.042 237.255c-14.924-6.364-30.223-2.017-45.988-2.014-18.419.003-36.757.716-55.162 1.395a5362.144 5362.144 0 0 1-113.916 2.987c-37.252.582-74.468.65-111.72.167-19.234-.249-38.415.557-57.641.753-18.048.183-35.093-2.15-52.881-4.679-13.188-1.875-25.015-1.835-36.778 4.852-7.459 4.24-18.074 12.182-12.67 21.721 2.191 3.867 7.087 1.635 7.58-2.053.764-5.718 16.831-9.512 21.471-10.033 14.413-1.62 29.255 4.077 43.501 5.626 32.755 3.563 66.413.286 99.333.978 67.205 1.413 134.554.019 201.736-1.979 36.085-1.073 72.833-3.689 108.749-1.521 8.22.493 12.39-12.787 4.386-16.2z" style="" fill="#38ad34" data-original="#38ad34" class=""></path><path d="M472.593 314.27a7.845 7.845 0 0 1 1.076-1.823c1.104-2.082 2.729-3.89 3.918-5.924 2.841-4.859 4.505-9.797 3.911-15.485-.184-1.763-.96-3.445-2.076-4.848 3.831-3.685 5.083-10.531-.855-13.278-15.506-7.176-30.087-7.876-44.91.845-1.361.801-2.706 1.641-4.059 2.462-7.168.888-13.315 6.05-19.065 10.407-4.404 3.338-8.983 6.384-13.482 9.513-8.465 4.007-14.909 10.643-21.837 17.052-8.593 7.95-18.666 15.278-29.195 20.524-3.47-.738-7.226-.856-11.011-.51-.622-1.645-1.776-3.193-3.599-4.428-14.301-9.685-30.613-15.66-45.221-24.801-7.708-4.823-14.858-10.487-22.555-15.334-6.757-4.256-16.476-7.109-20.136-14.628-2.607-5.355-9.352-4.805-13.236-1.706-14.13 11.276-28.122 22.644-41.977 34.251-1.9 1.592-3.833 3.141-5.761 4.696a56.869 56.869 0 0 0-4.813 3.364 7.631 7.631 0 0 0-1.945.409c-9.541 3.428-20.719 9.402-25.664 18.69-.261.49-.455.977-.616 1.459-.621.064-1.241.138-1.862.225-11.927-3.652-26.186-8.684-36.2-16.515-1.748-1.757-3.691-3.351-5.61-4.707a8.253 8.253 0 0 0-1.258-.709c-5.348-7.878-13.898-14.3-23.357-18.915-8.783-4.285-23.154-12.27-34.92-11.954a6.938 6.938 0 0 0-2.452.211c-5.139.702-9.63 3.262-12.704 8.824a25.98 25.98 0 0 0-2.061 4.79c-1.255 1.708-2.332 3.228-3.137 4.275-7.157 9.308-11.831 22.812.072 30.595 5.65 3.694 11.957 4.545 16.724 9.717 4.627 5.02 8.241 10.717 14.498 13.929 6.174 3.169 12.857 3.079 19.206.621 1.617-.626 4.597-2.518 7.759-4.311 7.875 1.515 15.847 2.451 24.047 2.231.169-.005.322-.042.486-.055 9.572 12.053 32.573 9.364 48.734 4.426 4.362 10.31 22.278 5.581 30.322 1.243 2.653-1.43 5.442-2.895 8.282-4.415a85.15 85.15 0 0 0 4.842-1.409 9.389 9.389 0 0 0 2.528 5.47c8.645 9.112 24.968 4.467 35.421 1.707 3.431-.906 6.799-1.961 10.144-3.076 8.807 3.763 20.33 1.895 29.382.495 4.954 1.681 9.802 1.82 14.682 1.23 6.754.408 13.819-.835 20.676-2.416 11.984 9.804 34.319 2.066 45.517-7.145 1.238.294 2.476.589 3.704.933 1.768.496 3.91 1.621 5.746 1.883-.173 4.93 3.467 9.862 9.145 9.825 7.466-.048 13.957-2.142 20.946-4.516 9.262-3.146 14.332-1.279 23.624.487 12.489 2.374 23.852-.825 33.899-7.08 4.28-1.028 8.528-2.132 12.572-3.343 8.699-2.605 19.917-8.285 20.826-18.676.866-9.878-8.883-13.724-17.115-14.782z" style="" fill="#ad514a" data-original="#ad514a" class=""></path><path d="M476.072 324.415c-1.654.688-3.202 1.512-4.712 2.385-3.578.167-7.181 2.218-8.711 5.322-1.436-1.575-3.57-2.799-6.725-3.48-7.327-1.583-12.521 1.382-17.437 5.118-.249-.34-.498-.679-.8-1.019-4.899-5.521-12.238-4.826-18.362-1.88-3.334 1.604-6.338 3.782-9.334 5.96.017-.404.025-.76.023-1.033-.024-3.658-2.861-8.466-6.868-9.021-7.051-.977-12.648.184-18.944 3.593a31.08 31.08 0 0 0-2.563 1.583c-2.165-2.999-6.036-4.858-10.021-3.861-7.001 1.751-13.017 5.654-19.024 9.497-.788.504-1.627 1.075-2.499 1.671-1.163-4.862-6.371-8.1-11.683-6.958-5.296 1.138-10.464 3.104-15.64 5.038.002-.063.012-.118.014-.182.091-3.725-2.897-8.168-6.753-8.869-8.102-1.474-15.265 1.407-22.246 4.842.02-5.302-6.211-10.409-11.911-9.469-7.495 1.236-13.088 6.268-19.797 9.429-.65.306-1.328.559-1.988.847 2.159-5.612-2.685-12.589-8.549-13.046 4.173-1.639 8.161-3.87 11.749-5.967 7.261-4.243.806-15.237-6.58-11.258-4.882 2.629-10.457 5.69-16.02 3.521-4.081-1.592-6.311-3.69-11.114-3.252-6.844.624-16.706 8.266-12.37 16.009.146.261.322.489.492.723a9.298 9.298 0 0 0-3.383 2.077c-2.05 1.947-4.145 4.551-5.896 7.459-2.287 2.157-4.923 3.994-7.544 5.604-.325.2-.663.399-.996.599-2.235-3.414-6.287-5.72-10.454-4.307-3.627 1.23-6.897 2.872-10.172 4.848-1.602.966-7.145 5.319-8.237 5.154-.015-.002-3.833-5.163-5.005-6.04-2.713-2.03-5.821-3.095-9.239-3.087-7.568.016-14.203 5.592-21.528 7.106-9.6 1.984-20.096 1.345-24.309-8.507-1.844-4.31-7.922-4.935-11.536-3.025-.51.27-1.028.548-1.546.825-2.341-1.27-5.228-1.631-8.236-.281-8.435 3.786-16.799 7.244-25.977 7.88.327-1.284.955-2.871 1.788-4.729 2.314-5.161-.238-13.524-7.323-12.762-10.009 1.076-23.227 7.742-32.32.562-3.662-2.891-8.113.592-6.301 4.861 4.731 11.144 16.041 12.84 27.11 12.439-.968 8.016 1.392 15.505 11.062 19.167 6.042 2.288 11.866 1.658 17.502-.267 8.853-1.123 17.489-4.985 25.59-9.249 11.411 13.486 33.746 15.112 49.438 7.801 1.113-.518 4.234-3.095 5.498-2.953.663.075.574 1.357 2.008 2.401 3.527 2.568 5.156 5.278 9.924 5.974 4.723.69 8.887-.621 12.878-2.555 3.222 1.518 7.241 1.787 10.783 1.388 5.623-.634 11.656-2.891 17.293-6.15.619.51 1.31.99 2.083 1.432 4.936 2.831 10.53 2.978 16.194 1.582 5.538 5.374 15.621 2.94 22.215 1.359 3.533-.847 7.007-1.929 10.43-3.156 1.102 2.351 3.074 4.281 5.564 4.619 9.175 1.246 16.303-1.169 24.697-4.693.485-.203.999-.445 1.526-.701.523 4.314 3.805 8.165 8.961 8.109 7.44-.08 14.393-1.946 21.262-4.199.572 3.097 2.617 5.774 6.431 6.637 12.381 2.804 21.212-2.929 30.247-8.79 1.666 2.647 4.482 4.543 7.705 4.216 6.297-.639 11.405-2.657 16.828-5.893 1.212-.723 2.779-1.958 4.5-3.27-.276 2.136.005 4.387 1.409 6.901 3.694 6.615 11.466 7.135 17.823 4.781 4.414-1.635 8.317-4.428 12.148-7.161 1.453 4.725 6.254 8.275 11.592 6.584 4.731-1.499 8.586-3.724 12.586-6.632a43.54 43.54 0 0 0 1.626-1.255c1.74 5.599 8.008 8.574 14.225 5.719 5.861-2.691 10.7-6.863 15.734-10.769.521-.058 1.03-.149 1.502-.314 6.548-2.281 9.648-5.215 12.138-11.661 2.505-6.483-5.322-14.668-11.925-11.921zm-243.643 8.343a50.944 50.944 0 0 1-5.283 2.862c.424-.684.829-1.371 1.193-2.063 1.936-3.682 1.139-7.363-.967-9.938 1.638-.507 2.998-1.434 4.745-1.639-.135.016 2.053.531 2.907.746 3.568.897 7.197.732 10.765-.061-3.539 2.393-8.812 5.914-13.36 10.093z" style="" fill="#9c413e" data-original="#9c413e" class=""></path><path d="M469.171 296.35c-2.691 2.267-5.772 4.063-8.982 5.493-.433.193-1.327.422-2.257.68-.564-4.793-5.161-8.551-10.323-7.144-4.983 1.358-8.795 3.802-13.061 6.633-4.465 2.964-8.715 4.112-13.665 6.085-3.76 1.498-5.477 5.923-2.409 9.126 9.167 9.571 17.251 3.004 25.688-2.133 2.244 2.836 5.86 4.312 11.015 3.068 7.881-1.902 15.486-9.184 20.849-14.954 4.305-4.63-2.127-10.835-6.855-6.854z" style="" fill="#9c413e" data-original="#9c413e" class=""></path><path d="M206.087 278.054c-1.193.343-2.37.758-3.549 1.163-1.034-.978-2.352-1.633-3.842-1.661-6.576-.122-13.073-1.003-19.362-2.999-4.921-1.562-9.09-5.069-14.004-6.439-9.779-2.726-19.455 4.045-27.791 8.186-4.849 2.409-10.248 5.183-15.834 4.854-6.436-.38-13.023-3.91-18.943-6.145-11.384-4.298-22.581-7.469-34.859-6.646-2.84.19-5.131 1.666-6.596 3.674-2.354-.863-5.071-.672-6.893 1.415l-.62.71c-2.131 2.44-2.987 7.078 0 9.394 13.229 10.256 29.44 12.764 44.092 20.259a217.61 217.61 0 0 1 23.573 13.982c5.092 3.479 8.873 9.174 14.26 12.056 10.567 5.652 19.778-5.362 26.891-11.619 12.055-10.603 24.312-22.875 39.143-29.392 1.38-.606 2.229-1.562 2.669-2.661 1.18-.447 2.363-.885 3.529-1.361 4.059-1.657 2.604-8.056-1.864-6.77zM409.387 269.865c-13.196-.773-26.59-.621-39.709 1.162-12.569 1.708-25.962 10.064-38.587 5.949-10.006-3.261-18.096-5.843-28.84-5.558-9.222.245-17.433 1.994-24.785 7.71-.505.393-.912.82-1.274 1.262-6.666-2.154-13.603-3.549-20.947-3.774-3.303-.102-3.563 4.445-.741 5.472 14.193 5.165 28.855 14.089 41.601 22.157 12.508 7.917 26.974 22.064 42.293 23.516 13.783 1.306 25.076-8.918 34.659-17.493 6.398-5.726 12.415-11.941 19.667-16.622 6.431-4.152 13.714-6.686 20.173-10.816 5.946-3.803 3.388-12.561-3.51-12.965z" style="" fill="#ffd45c" data-original="#ffd45c" class=""></path><path d="M126.7 304.088c-11.156-4.973-22.392-9.922-33.673-14.602-4.219-1.75-39.386-20.238-40.196-7.368-.155 2.467 2.314 3.68 4.357 3.146.116.141.256.335.441.653.442.761 3.306 1.867 4.176 2.382 2.181 1.292 4.278 2.71 6.541 3.853 9.671 4.887 19.832 8.846 29.511 13.776 7.605 3.873 15.438 7.249 23.058 11.086 6.911 3.48 13.716 11.195 21.576 11.375 2.946.068 5.565-2.582 5.516-5.516-.173-10.465-13.122-15.136-21.307-18.785zM344.065 313.304c-13.299-6.761-26.687-15.087-40.895-19.753-7.045-2.314-14.422-3.534-21.406-6.025-4.457-1.589-15.228-3.731-17.615-7.719-1.701-2.842-5.849-1.51-6.022 1.631-.64 11.642 17.498 19.028 26.152 22.551 9.08 3.697 17.761 6.739 26.254 11.76 8.61 5.091 17.393 10.056 26.773 13.585 3.423 1.288 8.263-.82 9.905-4.031.345-.674.652-1.374.884-2.095 1.123-3.493-.702-8.211-4.03-9.904z" style="" fill="#ffbe4a" data-original="#ffbe4a" class=""></path><path d="M470.212 359.578c.489-3.199-.04-7.694-2.538-8.673-3.035-1.19-8.545 3.254-10.832 4.804-4.428 3.001-8.887 5.11-14.176 6.422-9.802 2.431-16.969.688-26.31-1.493-8.162-1.906-14.405 4.247-22.382 4.547-7.589.286-19.66-1.476-25.772-6.318-3.471-2.75-7.795-3.203-11.251 0-14.561 13.499-38.383-5.74-53.823 3.466a8.017 8.017 0 0 0-3.284 3.72c-5.98.443-13.528-1.459-17.823-2.058-6.81-.95-14.002-2.224-20.829-1.363a42.579 42.579 0 0 0-2.024-.058c-2.512-1.983-6.038-2.761-9.459-.98-5.647 2.941-14.444 2.159-20.717 1.786-4.221-.251-8.488-.667-12.629-1.558-1.643-.354-3.225-.847-4.842-1.284-.557-.15-.909-.312-1.149-.453-2.209-6.023-10.986-6.029-14.303-.857-2.288 3.568-7.544 5.309-12.838 7-5.255 0-10.506-.198-15.691-.746-7.867-.831-14.695-6.447-22.723-5.619-5.902.608-11.47 4.055-16.645 7.139-.445-.215-.897-.426-1.413-.584-5.076-1.554-9.921-2.798-14.281-5.883-2.947-2.085-5.237-4.643-8.688-5.987-4.918-1.915-10.653-.915-15.041 2.036-5.851 2.556-11.617 5.266-18.077 5.932-5.536.57-14.836 1.511-19.219-2.538-3.266-3.018-7.399-1.748-9.549.933-5.54.027-12.281 6.149-4.449 11.861 10.379 7.569 17.872 11.576 31.259 10.502 1.029-.083 2.09-.181 3.162-.288 2.398.105 4.833.108 7.261.03 4.582.894 8.753.461 13.46.28 6.76-.26 13.553.705 20.299 1.065 12.886.688 25.925 1.053 38.814.314 3.149-.181 5.568-2.171 6.936-4.698 6.083 1.616 12.306 1.973 18.752 2.273 14.514.676 32.589 1.922 47.566-1.874 10.382 1.155 25.562 2.42 34.09-4.559 5.44 5.214 13.569 5.333 20.809 5.933 2.916.242 5.841.366 8.769.426 11.224 4.133 23.4 3.869 35.215 3.343 12.922-.576 25.71-.26 38.634-.034 20.575.359 41.549-1.415 61.904-4.437 3.023-.449 6.131-.904 9.259-1.428 9.761-.169 19.97-2.379 26.609-8.193 3.066-1.98 7.399-6.116 9.2-9.321.338-.6.601-1.497.759-2.528z" style="" fill="#eb3840" data-original="#eb3840" class=""></path><path d="M244.957 371.285c-16.461-3.579-35.662.679-52.494.854-17.695.184-35.307.107-52.952 1.76-17.03 1.595-34.432 4.973-51.518 2.223-16.184-2.605-31.468-8.943-48.064-8.645-3.942.071-5.096 6.279-.963 7.114 16.761 3.385 32.736 10.537 49.652 13.026 17.148 2.523 33.897-.785 50.893-2.782 18.176-2.136 36.653-1.715 54.917-1.195 16.323.465 36.46 3.6 51.661-3.697 3.636-1.747 2.72-7.821-1.132-8.658zM444.695 369.765c-13.886-3.078-29.441-.747-43.556-.117-15.41.688-30.818 1.466-46.242 1.746-29.629.538-59.297-2.653-88.785.937-3.589.437-3.713 5.377 0 5.683 29.539 2.436 59.103 5.165 88.785 4.873 14.751-.146 29.492-.762 44.232-1.308 14.833-.549 31.077.957 45.566-2.357 4.654-1.065 4.697-8.416 0-9.457z" style="" fill="#cf242c" data-original="#cf242c" class=""></path><path d="M293.245 413.849c1.832-7.813 2.906-18.895-1.164-24.652-2.778-3.93-7.485-5.133-12.015-5.66-.98-.114-5.905-.095-9.821-.531a23.74 23.74 0 0 0-4.052-2.367c.038-1.177-.216-2.337-.877-3.26l-.719-1.003c-2.497-3.486-7.207-3.45-9.739-1.092-2.025.758-3.802 1.838-5.738 3.24-1.531 1.11-3.084 2.436-4.511 3.657l-.426.283c-.329.202-.643.425-.963.64l-.419.279a23.62 23.62 0 0 0-.647.25c-4.789-4.221-10.711-.917-12.326 4.198-1.916.678-3.409 2.382-3.409 5.187 0 4.343.487 8.389 1.262 12.649 1.263 6.937 10.197 6.378 13.557 1.772l.008-.012c4.02-2.706 8.23-4.617 12.857-6.135 3.103-1.018 6.147-1.781 8.793-3.249 1.142 1.525 2.027 3.327 2.679 5.135-.32 7.884-1.299 16.065 4.9 21.935-.124 1.437-.228 2.886-.355 4.345-.54 6.259 6.655 8.606 11.324 6.498 1.831-.827 3.263-2.158 4.427-3.732 3.601-1.292 6.842-4.115 8.41-7.434 1.74-3.682 1.486-7.957-1.036-10.941z" style="" fill="#ffd45c" data-original="#ffd45c" class=""></path><path d="M238.426 394.577c-1.744-3.02-3.141-5.859-6.521-7.279-2.043-.858-5.052.943-5.409 3.071a25.131 25.131 0 0 0 .201 9.436c1.146 5.355 7.855 11.383 12.998 6.276 3.679-3.653.766-7.98-1.269-11.504zM279.52 416.172c-2.483-4.307-7.82-8.595-7.925-13.83-.09-4.454-7.274-5.842-8.099-1.096-.993 5.711-.867 11.017 1.205 16.491 1.987 5.252 4.014 11.268 8.055 15.32 2.38 2.387 6.116 1.654 7.876-1.015 3.239-4.914 1.646-11.087-1.112-15.87z" style="" fill="#ffbe4a" data-original="#ffbe4a" class=""></path><path d="M475.673 221.654c1.388-6.849.919-14.551-.133-21.858 2.241-28.535-6.12-57.566-21.26-81.83-18.368-29.438-46.528-49.617-79.257-60.363-38.597-12.673-80.607-14.605-120.898-12.468-39.411 2.09-79.925 6.793-117.376 19.768-34.399 11.917-68.78 30.712-88.828 62.105-9.285 14.539-15.69 31.182-18.791 48.138-2.804 15.331-4.805 34.297.229 49.39.828 2.481 1.946 4.592 3.274 6.427-15.021 3.649-31.091 14.98-32.518 30.081-1.758 18.586 17.027 23.703 31.859 22.591-9.206 5.834-16.061 16.737-18.68 26.497-1.983 7.39-1.885 15.818 2.426 22.403 2.005 3.063 4.894 5.522 8.121 7.216 4.425 2.322 12.984 1.517 15.229 5.877.702 1.364.123 4.577.583 6.223.321 1.152.812 2.3 1.403 3.397-11.93 6.273-11.51 16.736-4.549 24.228-.08.16-.168.314-.201.507-4.329 25.389-8.231 56.785 19.182 70.43 14.352 7.143 30.874 8.117 46.558 9.698 21.246 2.142 42.562 3.01 63.885 3.993 43.924 2.024 87.685 4.433 131.682 3.152 21.565-.628 43.012-2.301 64.508-4.05 19.444-1.582 39.297-2.423 58.494-6.09 16.398-3.132 30.806-12.065 37.512-27.821 6.397-15.031 5.748-31.958 3.617-47.875 8.552-4.747 13.815-12.597 13.391-25.943a5.85 5.85 0 0 0-.17-1.23c9.158-2.851 17.315-8.85 20.168-18.666 1.588-5.464 1.185-11.764-2.373-16.387-1.662-2.159-3.939-3.598-6.296-4.9-4.766-2.635-4.431-3.433-2.677-8.366 3.571-10.046 5.791-20.983.281-29.882 12.503-.838 25.211-4.962 27.558-17.982 3.446-19.121-17.515-35.836-35.953-36.41zM40.048 191.486c1.029-15.998 5.226-32.096 12.35-46.468 15.65-31.571 44.909-50.843 76.852-63.71 23.021-9.274 47.396-14.694 71.913-18.175 23.949-3.4 47.11-5.949 71.391-5.879 15.759.046 31.236.686 46.936 2.008 6.342.534 12.587 1.237 18.775 2.742 36.571 8.892 71.925 21.686 96.082 52.264 11.124 14.08 20.796 30.462 25.791 47.76 5.174 17.92 4.697 36.167 5.544 54.502-1.899 5.619-5.223 10.123-11.094 12.005-10.904 3.495-23.187 1.886-34.462 2.23-41.185 1.255-82.313.21-123.505.639-41.808.436-83.61 1.386-125.419 1.773-20.293.188-40.616.447-60.906-.055-18.731-.463-39.283-.226-57.566-4.691-15.75-3.845-13.525-23.829-12.682-36.945zm3.467 167.366c2.983 3.57 7.073 5.807 11.573 6.928 9.514 2.372 21.263.082 30.253-3.422 3.411-1.33 10.149-7.285 13.411-6.981 2.757.257 3.627 3.394 5.201 5.206 2.465 2.836 5.683 5.012 9.085 6.566 5.484 2.504 11.873 3.174 17.829 2.546 2.798-.296 5.374-1.003 7.989-2.06 2.465-.996 8.904-5.841 9.829-5.96.215-.028.322-.069.372-.115.121.062.261.131.448.216.657.301 2.277 2.008 3.155 2.683 2.431 1.867 5.079 3.535 7.933 4.672 5.833 2.324 11.901 2.271 17.956.802 5.631-1.365 11.597-3.875 15.97-7.742 3.114-2.754 3.301-4.466 7.295-2.063 2.513 1.512 4.18 3.575 6.901 4.852 12.821 6.021 28.247 3.865 40.364-2.469.76-.398 1.73-1.037 2.768-1.687-2.359 6.172-3.059 12.704-11.267 14.939-9.566 2.605-20.249 2.894-30.095 3.137-22.269.55-44.731-1.352-66.946.789-9.617.927-19.127 2.941-28.801 3.246-10.502.331-21.077-1.571-31.557-2.249-9.712-.629-20.132-.044-29.626-2.27-4.234-.993-10.269-2.805-12.961-6.532-3.362-4.651-.186-9.077 2.921-13.032zm245.382 66.525c-3.264 12.871-12.651 9.055-17.796.21-3.828-6.579-2.967-12.056-3.272-19.263-.306-7.274-5.328-18.579-14.512-13.221-6.172 3.6-6.399 13.193-14.539 14.362-9.641 1.384-11.287-10.975-10.788-19.207 8.187-.741 16.813-2.09 22.96-5.887 2.616-1.616 4.646-3.783 6.223-6.275.332.605.706 1.207 1.17 1.805 4.946 6.368 13.983 8.114 21.482 9.148 4.493.62 8.978 1.175 13.461 1.698-6.734 10.625-1.318 24.523-4.389 36.63zm158.886-4.616c-5.123 16.199-19.199 22.691-34.934 25.181-36.473 5.771-74.437 7.843-111.314 9.144-36.59 1.291-73.229.525-109.781-1.434-36.138-1.938-72.838-1.837-108.69-7.249-16.091-2.429-33.024-7.182-38.137-24.436-3.64-12.28-2.317-25.745-3.661-38.518a29.518 29.518 0 0 0 5.767 2.917c11.299 4.239 24.304 3.197 36.147 3.552 14.803.444 29.372 2.339 44.162.8 29.785-3.099 59.333.911 89.078-1.576 1.993-.167 4.14-.309 6.373-.469-3.056 10.95 1.408 25.846 13.869 27.246 7.605.854 13.741-5.004 17.601-10.88 1.553-2.365.844-4.12 3.871-2.33 2.58 1.526 1.884 3.395 1.82 5.996-.092 3.761-.586 7.388.152 11.115 2.121 10.706 12.988 27.646 25.991 22.67 7.455-2.853 10.921-11.523 11.813-18.842 1.47-12.059-1.292-22.572 3.802-33.98 18.258 1.852 36.508 2.78 55.009 2.246 27.621-.796 56.385-.785 83.79-4.397 3.284-.433 6.42-.999 9.396-1.711.699 11.672 1.416 23.761-2.124 34.955zm2.888-45.96c-9.507 2.474-19.351 3.149-29.132 3.568-20.966.896-41.906 2.266-62.872 3.143-21.586.903-42.719.197-64.179-2.255-6.588-.752-13.258-.885-19.775-2.182-5.241-1.043-9.487-2.133-11.588-7.231-.861-2.089-1.217-4.507-1.44-6.924.054-.343.124-.686.172-1.027 1.072 1.09 2.116 2.161 2.965 2.711 5.641 3.659 12.18 5.626 18.929 5.432 6.462-.185 12.652-2.618 18.265-5.671 3.422-1.861 4.983-3.989 8.708-2.912 2.757.797 5.708 3.983 8.501 5.148 11.909 4.968 25.064 2.379 35.325-4.667.973-.668 2.286-1.926 3.417-2.287 5.543-1.768.919-.87 3.884.491 2.338 1.073 4.286 4.06 6.698 5.453 5.592 3.228 12.33 4.618 18.771 4.282 6.015-.314 11.544-2.797 16.945-5.242 4.443-2.012 6.654-3.252 11.334-1.247 3.687 1.579 6.039 3.404 10.088 4.314 7.137 1.605 15.765 1.412 22.76-.869 6.685-2.18 9.866-9.16 16.172-10.575-.069 10.108-3.523 15.834-13.948 18.547zm32.653-40.031c-5.958 12.361-19.067 7.878-28.638 13.038-6.474 3.49-9.299 7.888-17.473 8.546-8.421.677-13.366-2.109-20.781-4.76-10.392-3.716-18.278 3.617-28.092 5.498-6.861 1.315-13.509-.036-18.914-4.528-3.349-2.784-5.456-5.163-10.203-5.117-4.459.044-8.265 2.66-11.987 4.767-6.023 3.409-12.066 5.6-19.171 5.033-9.415-.752-14.578-8.633-24.487-6.016-6.344 1.675-11.835 5.377-18.47 6.315-9.117 1.289-14.012-2.801-21.175-7.343-8.66-5.491-17.371 1.272-26.191 3.88-5.707 1.687-11.779 2.492-17.744 1.832-7.459-.826-10.028-5.114-16.052-8.084-10.313-5.085-16.862 6.255-25.878 9.288-8.034 2.703-13.792 1.43-20.633-3.275-2.025-1.392-2.899-2.377-5.41-2.747-4.263-.628-9.202 1.831-12.988 3.429-8.344 3.522-19.341 5.946-26.828-1.207-6.334-6.051-7.825-11.601-17.796-8.231-8.516 2.878-15.662 7.06-24.703 8.699-5.129.93-12.931 2.072-17.213-1.821-4.544-4.131-1.357-11.076-4.874-15.782-5.56-7.439-16.882-1.204-23.017-8.499-11.893-14.142 8.421-41.201 23.473-42.979a.019.019 0 0 0 .007-.002c14.48 10.463 30.674 17.978 46.579 26.346 9.588 5.045 19.142 10.396 27.782 16.96 6.041 4.59 12.492 10.67 20.393 11.474 7.398.753 12.809-3.947 18.042-8.463 8.67-7.483 17.535-14.711 26.549-21.776 9.932-7.784 19.01-16.955 29.4-24.108 6.035-4.155 13.054-6.911 19.171-10.917 16.697 11.039 31.159 24.682 48.814 34.627 10.912 6.147 21.983 11.967 32.484 18.807 7.094 4.621 14.952 10.239 23.805 9.911 15.999-.592 28.385-18.23 39.743-27.557 9.773-8.025 19.628-16.501 30.771-22.58 9.369-5.111 19.252-8.365 27.65-15.02a50.084 50.084 0 0 1 4.088-.229c8.241-.08 16.649 2.706 24.883 3.506.835.081 1.708.156 2.604.224.209.844.64 1.69 1.408 2.48 5.008 5.153 5.033 12.051 3.11 18.613-1.359 4.636-5.261 8.772-5.607 13.67-.886 12.559 20.062 10.629 13.569 24.098zM52.619 279.93a248.097 248.097 0 0 0 7.708-2.146c8.383-2.473 18.669-7.541 27.465-5.314 6.015 1.523 10.81 5.813 16.305 8.453 5.881 2.826 12.477 3.936 18.966 3.489 5.887-.405 11.433-2.285 16.681-4.888 6.611-3.278 12.899-8.708 20.572-8.594 7.118.107 12.589 4.929 18.718 7.986 5.414 2.7 11.051 4.138 17.117 4.006 3.926-.086 7.711-.874 11.425-1.981a212.549 212.549 0 0 0-12.496 9.379c-8.676 7.013-17.788 13.43-26.662 20.187-6.446 4.909-15.798 15.848-23.81 16.784-7.753.905-16.073-7.746-22.374-11.817-8.344-5.39-17.153-10.032-26.06-14.41-14.482-7.119-28.954-14.268-43.555-21.134zm200.867-3.026c1.126.581 2.249 1.16 3.377 1.701 6.136 2.942 12.574 5.107 19.393 5.664 6.846.56 13.653-.573 20.047-3.004 7.207-2.741 14.44-7.521 22.403-6.655 7.045.767 13.104 5.692 19.935 7.508 6.314 1.679 12.976 1.148 19.178-.754 6.405-1.964 12.11-5.792 18.532-7.666 8.682-2.534 16.318 1.333 24.776 2.942 3.589.683 7.045.779 10.431.542-9.827 4.772-19.181 10.438-28.332 17.084-7.725 5.61-15.516 11.254-22.71 17.538-5.742 5.016-13.729 14.496-22.192 13.245-9.447-1.397-18.917-10.112-27.215-14.563-10.375-5.565-20.923-10.807-31.24-16.483-9.108-5.011-17.41-11.833-26.383-17.099zm240.802-15.171c-10.874 5.263-26.795 2.824-38.148.434-10.478-2.205-19.721-1.595-30.188.664-6.132 1.324-12.197 3.14-18.55 2.62-7.127-.583-13.626-3.727-20.635-4.764-10.857-1.608-19.61 3.556-29.387 7.21-6.144 2.296-11.859 3.287-18.165 1.252-6.486-2.094-12.037-6.143-18.897-7.127-10.618-1.523-19.398 3.877-29.053 7.148-15.784 5.348-26.097-1.218-40.339-6.799-23.008-9.016-43.829 15.991-66.105 6.642-8.798-3.693-15.915-10.012-26.046-9.67-9.912.334-17.513 6.922-26.124 10.871-8.68 3.98-17.891 4.631-26.66.584-3.772-1.74-7.255-4.03-11.11-5.614-8.212-3.374-16.082-2.912-24.603-.965-15.418 3.523-32.803 10.061-48.801 7.486-10.167-1.637-12.349-9.575-6.378-17.683 5.614-7.622 15.433-13.917 24.863-16.579 6.075 3.449 13.674 4.708 21.085 5.639 22.685 2.853 45.517 3.634 68.362 3.671 47.782.078 95.556-1.051 143.33-1.777 50.867-.774 101.794-.812 152.653-1.193 13.386-.1 31.606 1.75 42.502-7.788a21.861 21.861 0 0 0 3.377-3.749c7.98 1.613 16.191 4.307 22.062 9.921 5.816 5.561 9.881 15.245.955 19.566z" fill="#000000" opacity="1" data-original="#000000" class=""></path></g></svg>